<svg width="24" height="28" viewBox="0 0 24 28" fill="none" xmlns="http://www.w3.org/2000/svg">
<path fill-rule="evenodd" clip-rule="evenodd" d="M12 9.33341C13.1 9.33341 14 8.28341 14 7.00008C14 5.71675 13.1 4.66675 12 4.66675C10.9 4.66675 10 5.71675 10 7.00008C10 8.28341 10.9 9.33341 12 9.33341ZM12 11.6667C10.9 11.6667 10 12.7167 10 14.0001C10 15.2834 10.9 16.3334 12 16.3334C13.1 16.3334 14 15.2834 14 14.0001C14 12.7167 13.1 11.6667 12 11.6667ZM10 21.0001C10 19.7167 10.9 18.6667 12 18.6667C13.1 18.6667 14 19.7167 14 21.0001C14 22.2834 13.1 23.3334 12 23.3334C10.9 23.3334 10 22.2834 10 21.0001Z" fill="#ADB5BD"/>
</svg>
